<svg width="16" height="16" viewBox="0 0 16 16" fill="none" xmlns="http://www.w3.org/2000/svg">
<path d="M6.1936 13.5568L9.104 13.9648L9.464 11.3984L9.3616 9.63836L9.3872 9.46716L9.5456 9.57756L10.7088 10.9184L12.7536 12.5152L14.5616 10.1952L12.5184 8.59996L10.928 7.80796L10.768 7.69916L11.0016 7.60156L12.7056 7.27356L15.1104 6.30236L14.0096 3.57436L11.6048 4.54396L10.1168 5.51356L9.9328 5.57436L9.9648 5.36156L10.5456 3.69756L10.9072 1.13116L7.9984 0.721558L7.6368 3.28956L7.7392 5.04956L7.7024 5.30556L7.5072 5.14556L6.3872 3.81116L4.3424 2.21596L2.5328 4.53596L4.5776 6.13116L6.1248 6.91516L6.32 7.07516L6.1376 7.13596L4.3904 7.45596L1.9856 8.42716L3.0848 11.1568L5.4896 10.1856L6.9776 9.21596L7.1616 9.15516L7.1376 9.32636L6.5552 10.9904L6.1936 13.5568Z" fill="#E3E552"/>
</svg>
